<?xml version="1.0" standalone="no"?>
<!DOCTYPE svg PUBLIC "-//W3C//DTD SVG 20010904//EN"
 "http://www.w3.org/TR/2001/REC-SVG-20010904/DTD/svg10.dtd">
<svg version="1.0" xmlns="http://www.w3.org/2000/svg"
 width="16.000000pt" height="16.000000pt" viewBox="0 0 16.000000 16.000000"
 preserveAspectRatio="xMidYMid meet">
<metadata>
Created by potrace 1.11, written by Peter Selinger 2001-2013
</metadata>
<g transform="translate(0.000000,16.000000) scale(0.012500,-0.012500)"
fill="#000000" stroke="none">
<path d="M505 1264 c-27 -7 -61 -15 -75 -18 -69 -12 -248 -121 -348 -212 l-47
-42 -1 -287 -1 -287 31 -13 c54 -23 228 -65 268 -65 23 0 38 -5 39 -12 0 -7 2
-24 5 -38 2 -14 11 -70 19 -125 8 -55 17 -111 19 -125 3 -14 5 -28 5 -32 2
-19 31 -5 77 37 27 25 51 45 54 45 4 0 30 -20 59 -45 l53 -45 26 19 c15 10 36
28 46 40 11 12 23 21 28 21 5 0 29 -19 53 -41 25 -23 51 -39 59 -36 8 3 16 28
21 62 3 31 8 67 10 79 6 35 25 177 25 186 0 5 8 8 18 8 38 -3 265 55 288 73 6
5 10 105 10 293 -1 327 10 290 -116 385 -117 88 -214 144 -270 156 -8 1 -35 8
-60 15 -65 18 -235 20 -295 4z m83 -806 c-8 -7 -28 -25 -44 -41 l-30 -27 -44
40 -43 40 87 0 c71 0 85 -2 74 -12z m244 -29 l-42 -41 -39 34 c-22 18 -40 36
-40 41 -1 4 36 7 82 7 l82 0 -43 -41z m-131 -20 c27 -22 49 -46 48 -52 -1 -7
-23 -32 -51 -56 l-49 -45 -52 52 -52 52 50 44 c28 25 52 45 54 46 2 0 25 -18
52 -41z m-223 -45 c2 -1 -9 -14 -24 -28 -16 -14 -30 -24 -32 -22 -2 2 -7 29
-11 60 l-8 57 36 -33 c20 -18 37 -34 39 -34z m415 24 c-2 -18 -6 -43 -9 -56
l-5 -23 -28 23 -29 23 31 33 c17 17 34 32 37 32 4 0 5 -15 3 -32z m-309 -195
l-36 -33 -54 46 c-30 26 -54 49 -54 52 0 3 17 19 37 37 l37 32 53 -51 53 -51
-36 -32z m248 97 l36 -31 -54 -51 -53 -50 -35 28 c-19 16 -35 33 -35 39 -1 10
88 95 99 95 4 0 23 -14 42 -30z m-322 -161 c0 -9 -49 -53 -54 -48 -3 2 -8 29
-12 58 l-7 54 36 -29 c21 -16 37 -32 37 -35z m178 30 c17 -16 32 -33 32 -38 0
-4 -12 -19 -28 -34 l-27 -26 -40 34 -40 33 29 31 c17 17 32 31 35 31 3 0 21
-14 39 -31z m171 -16 c-4 -27 -8 -54 -8 -62 -1 -10 -10 -6 -30 13 l-29 28 32
33 c17 19 34 34 37 35 3 0 2 -21 -2 -47z"/>
</g>
</svg>
